<svg enable-background="new 0 0 255.1 255.1" viewBox="0 0 255.1 255.1" xmlns="http://www.w3.org/2000/svg"><circle cx="127.6" cy="127.6" fill="#83c300" r="121.6"/><g fill="#fefefe"><path d="m132.648 141.782c-.413-10.695 2.545-21.791 6.292-32.75.397-1.161 1.129-1.621 2.191-1.826 2.351-.455 4.634-1.156 6.89-1.947 9.716-3.409 17.863-9.167 24.866-16.634.35-.374.691-.756 1.039-1.132 1.533-1.658 1.554-1.679 3.125-.117 8.585 8.54 14.684 18.59 18.053 30.226 9.477 32.739-5.663 67.258-36.138 82.515-.838.42-1.699.797-2.56 1.171-1.95.846-1.93.821-3.391-.859-11.1-12.757-17.323-27.633-19.428-44.344-.556-4.413-.933-8.824-.939-14.303z"/><path d="m122.704 141.267c-.379 14.433-2.405 27.001-7.548 38.937-3.239 7.517-7.867 14.151-13.105 20.384-1.32 1.571-1.373 1.571-3.22.723-16.003-7.345-27.766-18.99-35.185-34.951-4.916-10.577-6.969-21.765-6.199-33.381 1.17-17.657 8.077-32.797 20.528-45.391.12-.121.241-.242.366-.359 1.441-1.358 1.479-1.391 2.78.063 3.888 4.348 8.202 8.205 13.056 11.448 5.88 3.928 12.253 6.762 19.157 8.268 1.843.402 2.732 1.236 3.291 2.981 2.321 7.238 4.608 14.482 5.401 22.083.372 3.561.532 7.144.678 9.195z"/><path d="m127.668 95.452c-14.599.01-26.36-5.701-35.975-16.144-1.369-1.486-1.354-1.566.368-2.597 3.67-2.195 7.535-3.984 11.552-5.445.801-.291 1.621-.534 2.413-.848 1.246-.494 1.285-.649.517-1.84-.277-.429-.605-.825-.91-1.236-3.252-4.385-6.507-8.767-9.751-13.158-.506-.685-1.046-1.365-1.418-2.123-1.052-2.141-.391-4.587 1.512-5.899 1.863-1.284 4.146-1.094 5.835.568.664.653 1.216 1.426 1.775 2.178 4.225 5.681 8.485 11.337 12.624 17.08.988 1.371 2.006 1.805 3.647 1.576 5.176-.724 10.379-.736 15.554.005 1.669.239 2.658-.274 3.632-1.62 4.251-5.873 8.609-11.668 12.936-17.486.457-.614.907-1.251 1.457-1.777 1.754-1.677 4.198-1.793 6.059-.345 1.776 1.382 2.301 3.666 1.255 5.742-.342.679-.815 1.298-1.27 1.914-3.245 4.39-6.501 8.772-9.753 13.157-.305.411-.621.815-.91 1.237-1.014 1.483-1.006 1.519.577 2.108.719.268 1.454.491 2.176.751 4.021 1.452 7.879 3.256 11.558 5.434 1.8 1.065 1.815 1.117.488 2.559-9.746 10.589-21.665 16.332-35.948 16.209z"/></g></svg>