<svg enable-background="new 0 0 255.1 255.1" viewBox="0 0 255.1 255.1" xmlns="http://www.w3.org/2000/svg"><circle cx="127.6" cy="127.6" fill="#5b5466" r="121.6"/><path clip-rule="evenodd" d="m107.525 189.876c3.54.472 7.168.718 10.861.718 39.32 0 71.194-27.794 71.194-62.077 0-34.285-31.875-62.077-71.194-62.077-2.638 0-5.244.126-7.805.369 19.504 12.884 32.401 35.204 32.401 60.579-.002 26.678-14.254 49.977-35.457 62.488zm20.075 15.087c42.727 0 77.363-34.636 77.363-77.363s-34.636-77.363-77.363-77.363-77.363 34.636-77.363 77.363 34.636 77.363 77.363 77.363z" fill="#fff" fill-rule="evenodd"/></svg>