<svg enable-background="new 0 0 255.1 255.1" viewBox="0 0 255.1 255.1" xmlns="http://www.w3.org/2000/svg"><circle cx="127.6" cy="127.6" fill="#006fc9" r="121.6"/><g fill="#fefefe"><path d="m126.685 179.553c14.923.159 26.121-6.269 32.82-19.643 8.319-16.609 1.766-36.906-14.503-46.024-.381-.213-.751-.467-1.159-.608-1.476-.509-1.939-1.439-1.704-3.017.257-1.718.252-3.485.244-5.229-.023-4.759-1.941-8.807-4.825-12.469-.154-.195-.365-.346-.549-.517-.188.262-.028.496.086.711 2.378 4.497 2.613 9.355 2.469 14.292-.061 2.066-.694 3.935-1.6 5.754-1.207 2.426-2.975 3.778-5.803 4.266-16.193 2.79-32.127 6.764-48.056 10.763-11.096 2.786-22.247 5.358-33.373 8.024-.425.102-.849.223-1.281.271-.228.025-.615-.024-.674-.156-.085-.187.017-.505.126-.724.192-.39.445-.751.68-1.119 8.678-13.554 16.458-27.623 23.95-41.855.923-1.754 2.134-3.086 3.756-4.233 12.85-9.081 25.546-18.365 37.481-28.65 9.836-8.476 18.711-17.85 26.683-28.09.376-.483.749-.967 1.139-1.438.103-.124.275-.295.395-.28.361.045.275.349.232.585-.125.687-.267 1.371-.398 2.057-1.993 10.4-5.924 20.076-10.896 29.375-1.864 3.486-1.803 3.485 2.189 3.589 32.048.834 59.999 22.141 69.198 52.89 9.836 32.881-3.971 67.726-33.37 85.147-4.45 2.637-9.129 4.759-14.01 6.469-1.43.501-2.641.385-4.007-.22-5.994-2.657-11.121-6.574-15.954-10.897-5.43-4.856-10.229-10.28-14.16-16.44-.329-.515-.646-1.038-.956-1.565-.4-.68-.488-1.092.594-1.041 1.739.083 3.489.022 5.236.022zm-24.683-85.383c-.146-1.387-.283-2.775-.443-4.16-.04-.344-.147-.681-.23-1.019-.161-.654-.544-.849-1.14-.511-.378.215-.746.452-1.102.702-8.231 5.761-15.007 12.984-21.01 20.973-.921 1.225-.731 1.55.92 1.591 6.903.169 13.057-1.863 18.308-6.406 3.394-2.937 4.871-6.709 4.697-11.17z"/><path d="m123.195 211.207c-6.948-.777-13.843-1.838-20.563-3.838-10.778-3.207-19.883-9.221-28.17-16.66-11.739-10.538-19.128-23.671-23.343-38.728-.468-1.67-.451-1.71 1.336-1.881 11.228-1.078 22.339-2.822 33.26-5.698 6.426-1.693 12.706-3.812 18.875-6.272.811-.323 1.627-.634 2.45-.926.143-.051.358-.026.491.05.301.172.18.44.051.659-.309.527-.646 1.038-.96 1.561-.99 1.646-2.004 3.279-2.958 4.946-4.851 8.47-6.05 17.516-4.459 27.08 2.197 13.214 8.391 24.119 18.523 32.824 2.583 2.22 5.202 4.399 7.789 6.614.208.178.681.237.499.665-.026.061-.486-.063-.746-.1-.692-.1-1.384-.197-2.075-.296z"/></g></svg>