<svg enable-background="new 0 0 255.1 255.1" viewBox="0 0 255.1 255.1" xmlns="http://www.w3.org/2000/svg"><circle cx="127.6" cy="127.6" fill="#fb89eb" r="121.6"/><path clip-rule="evenodd" d="m73.964 180.088 28.739-8.333 24.822 45.386c.033.059.117.059.149 0l24.822-45.386 28.739 8.333c.064.019.124-.041.105-.106l-8.334-28.17 44.134-24.138c.059-.032.059-.117 0-.149l-44.498-24.337 8.698-29.4c.019-.064-.041-.124-.105-.106l-29.413 8.529-24.148-44.153c-.032-.059-.117-.059-.149 0l-24.148 44.153-29.413-8.529c-.064-.019-.124.041-.105.106l8.698 29.4-44.498 24.337c-.059.032-.059.117 0 .149l44.134 24.138-8.334 28.17c-.019.065.041.125.105.106zm22.301-52.178 20.36 11.135 11.135 20.36c.032.059.117.059.149 0l11.135-20.36 20.36-11.135c.059-.032.059-.117 0-.149l-20.36-11.135-11.135-20.36c-.032-.059-.117-.059-.149 0l-11.135 20.36-20.36 11.135c-.058.032-.058.116 0 .149z" fill="#fff" fill-rule="evenodd"/></svg>