<svg enable-background="new 0 0 255.1 255.1" viewBox="0 0 255.1 255.1" xmlns="http://www.w3.org/2000/svg"><circle cx="127.6" cy="127.6" fill="#e0306a" r="121.6"/><g fill="#fefefe"><path d="m139.536 184.222c-19.152 0-38.304-.046-57.456.038-3.814.017-5.556-1.013-5.55-5.472.046-33.436-.026-66.872-.061-100.309 0-.479-.014-.959.012-1.436.134-2.483 1.426-3.808 3.906-3.895 1.833-.064 3.67-.019 5.506-.02 3.032-.001 6.071.127 9.096-.029 4.797-.248 5.731 1.749 5.68 5.556-.121 9.016-.039 18.034-.039 27.052 0 1.915-.027 3.831.012 5.745.066 3.224 1.174 4.325 4.326 4.368.638.009 1.278.024 1.915-.011 2.269-.124 3.499-1.318 3.558-3.633.071-2.791.024-5.586.025-8.379.001-8.219 0-16.439.001-24.658 0-.638-.013-1.277.009-1.915.099-2.74 1.398-4.031 4.199-4.085 2.313-.045 4.628-.012 6.942-.012 2.873 0 5.746-.023 8.618.009 3.082.034 4.344 1.271 4.352 4.385.028 10.853.011 21.706.018 32.558.001.877-.035 1.765.09 2.628.27 1.876 1.474 2.962 3.387 3.087 1.033.067 2.077.069 3.11.002 2.019-.129 3.209-1.277 3.435-3.297.088-.79.061-1.594.062-2.391.003-10.374.002-20.748.003-31.122 0-.638-.011-1.277.006-1.915.08-2.999 1.392-4.338 4.447-4.364 5.027-.043 10.055-.047 15.082.002 3.028.03 4.345 1.38 4.352 4.437.025 10.933.009 21.865.014 32.798 0 .877-.038 1.764.075 2.629.266 2.034 1.454 3.119 3.502 3.228 1.034.055 2.078.062 3.111-.008 1.896-.129 3.083-1.236 3.338-3.131.116-.864.083-1.752.083-2.629.005-10.214.003-20.429.004-30.643 0-.718-.014-1.437.01-2.154.094-2.82 1.305-4.071 4.14-4.093 5.266-.041 10.534-.044 15.8.002 2.78.024 4.063 1.349 4.184 4.119.021.478.008.957.008 1.436-.031 33.197-.063 66.394-.097 99.591-.001.798.033 1.602-.051 2.392-.227 2.139-1.423 3.316-3.552 3.506-.792.071-1.595.031-2.393.031-19.075.002-38.147.002-57.219.002z"/><path d="m68.526 145.065c0 11.082.001 22.164-.003 33.246 0 .876.023 1.76-.075 2.628-.23 2.031-1.329 3.134-3.367 3.435-.549.081-1.116.036-1.669.097-2.966.325-4.786-.8-6.159-3.633-3.755-7.743-7.837-15.329-11.835-22.954-.722-1.378-1.142-2.756-1.134-4.324.028-5.66.014-11.321-.033-16.982-.013-1.559.335-2.97 1.054-4.352 4.191-8.063 8.38-16.127 12.487-24.232.871-1.719 2.053-2.54 3.95-2.443 1.113.057 2.239-.044 3.344.068 2.095.212 3.298 1.468 3.504 3.571.07.711.037 1.434.037 2.151.002 11.242.001 22.483.001 33.725-.034-.001-.068-.001-.102-.001z"/></g></svg>