<svg enable-background="new 0 0 255.1 255.1" viewBox="0 0 255.1 255.1" xmlns="http://www.w3.org/2000/svg"><circle cx="127.6" cy="127.6" fill="#ff9741" r="121.6"/><path d="m182.541 185.55c-.027.889-.626 1.494-1.083 2.168-7.367 10.861-17.313 18.158-30 21.634-8.584 2.352-17.308 3.991-26.233 3.349-22.541-1.622-41.215-10.568-54.166-29.673-6.34-9.352-9.461-19.891-10.291-31.121-1.129-15.261 2.104-29.771 7.626-43.879.566-1.445 1.16-2.88 1.778-4.303.162-.373.232-1.018.842-.847.357.1.274.608.276.955.006.913-.013 1.827-.009 2.74.041 10.913 1.005 21.705 4.281 32.187 1.091 3.49 2.386 6.904 3.954 10.21.183.387.359.939.916.76.156-.05.221-.667.179-1.006-.552-4.539-.745-9.103-.847-13.666-.398-17.762 4.124-33.811 16.675-46.962 3.465-3.63 7.086-7.109 11.187-10.06 3.264-2.349 6.335-4.939 9.105-7.877 5.249-5.567 7.844-12.214 8.191-19.803.214-4.686-.397-9.293-1.282-13.876-.104-.537-.212-1.074-.284-1.616-.022-.165.056-.486.116-.493.238-.028.499.006.727.086.16.057.284.223.418.347 6.854 6.386 13.052 13.298 17.373 21.71 3.849 7.494 5.483 15.44 4.843 23.849-.204 2.682-.178 2.714-2.845 3.513-7.901 2.367-13.454 10.11-13.086 18.79.342 8.068 5.783 15.167 13.602 17.288 9.859 2.675 19.914-3.363 22.593-13.542 1.127-4.279.716-8.509-.294-12.73-.574-2.401-1.354-4.738-2.211-7.052-.177-.477-.693-1.105-.146-1.481.455-.313 1.001.241 1.458.513 10.659 6.331 19.124 14.776 23.86 26.344 8.27 20.198 6.118 39.435-6.896 57-8.472 11.434-20.221 17.041-34.563 16.855-1.729-.022-3.456-.281-5.182-.451-.443-.044-1.009-.018-1.196-.501-.205-.533.343-.752.673-1.024.564-.465 1.173-.877 1.71-1.37 7.653-7.025 10.557-15.726 8.257-25.79-2.259-9.884-8.508-16.425-18.377-19.111-12.829-3.492-26.35 4.492-30.061 17.685-2.658 9.448-.476 17.976 5.724 25.365 7.584 9.039 17.473 13.844 29.208 14.934 11.363 1.056 22.162-1.318 32.667-5.364 3.657-1.408 7.189-3.141 10.778-4.726z" fill="#fefefe"/></svg>