<svg enable-background="new 0 0 255.1 255.1" viewBox="0 0 255.1 255.1" xmlns="http://www.w3.org/2000/svg"><circle cx="127.6" cy="127.6" fill="#89aae3" r="121.6"/><path d="m188.976 121.561c.055.914-.504 1.601-.881 2.351-6.37 12.671-22.688 23.722-38.37 23.689-3.318-.007-6.632-.018-9.945-.211-.315-.018-.861.075-.919.245-.176.521.333.714.713.829 3.663 1.109 7.371 2.03 11.161 2.603 5.521.835 11.021.732 16.49-.389 5.635-1.155 10.445-3.957 14.892-7.499.667-.531 1.153-1.437 2.205-1.387-.38.752-.739 1.515-1.143 2.253-5.512 10.062-14.349 15.076-25.403 16.721-3.036.452-6.096.536-9.159.567-.68.007-1.361.013-2.039.059-.224.015-.581.054-.495.411.05.207.245.452.438.538.541.241 1.11.426 1.678.6 1.219.372 2.451.701 3.665 1.086 1.299.412 1.364.496.777 1.799-2.144 4.759-4.916 9.13-8.325 13.083-8.768 10.168-19.756 16.589-32.979 18.847-30.947 5.285-59.016-15.113-64.592-44.532-5.64-29.756 12.823-57.988 42.269-64.997 4.319-1.028 8.709-1.452 13.15-1.44 8.674.024 17.354.191 26.023-.034 15.44-.401 30.653-2.485 45.468-7.02 4.399-1.347 8.641-3.088 12.656-5.36 6.713-3.798 12.076-9.071 16.593-15.246 1.906-2.606 3.669-5.318 5.506-7.976.179-.259.343-.664.757-.509.388.145.297.559.286.874-.198 5.531-.712 11.04-1.794 16.464-2.112 10.592-5.872 20.632-11.377 29.895-8.452 14.22-20.786 23.595-36.771 28.028-4.114 1.141-8.38 1.492-12.617 1.693-6.283.299-12.584.383-18.815-.815-.332-.064-.674-.087-1.012-.109-.237-.015-.513-.002-.541.297-.012.126.139.317.267.394.288.173.604.302.915.433 9.856 4.15 20.045 6.476 30.811 5.545 6.809-.589 13.453-1.936 19.803-4.541 3.66-1.502 6.968-3.536 9.683-6.462.28-.301.66-.509.993-.761z" fill="#fefefe"/></svg>