<svg enable-background="new 0 0 255.1 255.1" viewBox="0 0 255.1 255.1" xmlns="http://www.w3.org/2000/svg"><circle cx="127.6" cy="127.6" fill="#38bf4b" r="121.6"/><path d="m136.311 163.718c-6.319 0-12.637 0-18.956 0-.59 0-1.18.001-1.769-.009-.738-.012-1.201-.21-.675-1.045.269-.427.533-.858.8-1.287 5.254-8.436 10.53-16.86 15.743-25.322.855-1.387 1.784-2.134 3.534-2.315 10.385-1.074 20.753-2.309 31.126-3.497.583-.067 1.18-.138 1.732-.32 1.272-.42 1.984-1.319 1.959-2.343-.025-1.012-.765-1.956-1.994-2.342-.798-.251-1.641-.387-2.474-.488-7.273-.884-14.549-1.748-21.824-2.618-3.717-.445-2.942-.633-1.523-2.901 6.97-11.139 13.951-22.272 20.922-33.41.491-.785.961-1.584 1.408-2.394.37-.671.603-1.399.565-2.176-.094-1.924-1.65-2.837-3.36-1.958-1.067.548-1.857 1.438-2.668 2.297-9.075 9.622-18.151 19.242-27.23 28.861-2.573 2.726-2.253 2.655-3.591-.725-2.633-6.655-5.249-13.317-7.884-19.971-.309-.781-.62-1.575-1.049-2.292-.738-1.236-1.934-1.824-2.91-1.554-1.002.277-1.721 1.404-1.724 2.809-.001.586.099 1.175.183 1.758 1.451 10.083 2.888 20.168 4.379 30.245.277 1.871-.071 3.285-1.482 4.737-6.81 7.008-13.483 14.148-20.204 21.242-.348.367-.682.748-1.047 1.097-.944.902-1.068.9-1.407-.366-1.829-6.831-3.635-13.668-5.426-20.509-1.62-6.189-3.21-12.386-4.814-18.579-.297-1.147-.61-2.28-1.567-3.1-1.447-1.241-3.141-.84-3.869.935-.367.894-.261 1.819-.172 2.744.624 6.454 1.248 12.907 1.865 19.362.752 7.879 1.499 15.759 2.242 23.639.229 2.431.386 4.869.677 7.292.132 1.1-.108 1.91-.886 2.722-4.837 5.049-9.621 10.149-14.441 15.213-1.243 1.306-1.305 1.304-2.49-.058-6.988-8.031-11.809-17.226-14.193-27.584-4.637-20.148-1.556-38.985 10.189-56.176 5.262-7.703 12.16-13.636 20.127-18.486 14.116-8.594 29.402-14.09 45.393-17.889 12.222-2.904 24.547-5.191 37.064-6.3 6.796-.602 13.618-.863 20.446-.755 1.867.03 1.897.039 2.381 1.865 1.812 6.841 3.321 13.75 4.432 20.74 2.64 16.603 3.555 33.321 3.1 50.111-.279 10.286-1.137 20.518-3.97 30.48-2.58 9.071-6.522 17.552-11.916 25.243-8.761 12.49-20.864 20.462-35.488 24.421-16.438 4.45-32.526 3.117-48.074-3.972-.536-.244-1.063-.507-1.584-.782-.461-.243-.508-.643-.288-1.063.234-.446.515-.868.781-1.297 3.334-5.364 6.706-10.705 9.978-16.107.818-1.351 1.79-1.958 3.374-2.197 11.82-1.781 23.624-3.672 35.433-5.532 4.408-.694 8.815-1.388 13.219-2.105.827-.135 1.67-.295 2.446-.597 1.24-.484 1.998-1.634 1.907-2.706-.107-1.253-.942-1.91-2.005-2.364-.963-.411-1.98-.346-2.989-.346-6.487-.001-12.974-.001-19.461-.001-.001.004-.001.015-.001.025z" fill="#fefefe"/></svg>