<svg enable-background="new 0 0 255.1 255.1" viewBox="0 0 255.1 255.1" xmlns="http://www.w3.org/2000/svg"><circle cx="127.6" cy="127.6" fill="#e87236" r="121.6"/><path clip-rule="evenodd" d="m83.051 173.856c-.043 0-.073-.042-.059-.083l40.288-102.835c.009-.025.032-.041.059-.041h51.007c.026 0 .05.017.059.042l39.689 102.835c.014.04-.016.082-.059.082zm-47.692.446c-.043 0-.073-.043-.058-.084l31-80.093c.009-.024.032-.04.058-.04h26.067c.043 0 .073.043.058.083l-30.009 80.093c-.009.024-.032.041-.058.041z" fill="#fff" fill-rule="evenodd"/></svg>