<svg enable-background="new 0 0 255.1 255.1" viewBox="0 0 255.1 255.1" xmlns="http://www.w3.org/2000/svg"><circle cx="127.6" cy="127.6" fill="#4cd1c0" r="121.6"/><g fill="#fff"><path d="m80.008 106.491 43.435 21.133-43.435 21.085-43.436-21.08z"/><path d="m175.192 106.491-43.435 21.133 43.435 21.085 43.436-21.08z"/><path d="m175.192 52.127-43.435 22.862v44.766l.33-.164.617-.307 42.476-21.136-.001-.001.013-.006z"/><path d="m175.192 203.073-43.435-22.862v-44.766l.33.164.617.307 42.476 21.136-.001.001.013.006z"/><path d="m80.008 52.127 43.435 22.862v44.766l-.33-.164-.617-.307-42.476-21.136.001-.001-.013-.006z"/><path d="m80.008 203.073 43.435-22.862v-44.766l-.33.164-.617.307-42.476 21.136.001.001-.013.006z"/></g></svg>