<svg width="160" height="160" viewBox="0 0 160 160" fill="none" xmlns="http://www.w3.org/2000/svg">
<path d="M160 80C160 124.183 124.183 160 80 160C35.8172 160 0 124.183 0 80C0 35.8172 35.8172 0 80 0C124.183 0 160 35.8172 160 80Z" fill="#1A1A1A"/>
<mask id="mask0_5_5" style="mask-type:alpha" maskUnits="userSpaceOnUse" x="8" y="8" width="144" height="144">
<path d="M152 80C152 119.765 119.765 152 80 152C40.2355 152 8 119.765 8 80C8 40.2355 40.2355 8 80 8C119.765 8 152 40.2355 152 80Z" fill="#E03030"/>
</mask>
<g mask="url(#mask0_5_5)">
<rect width="160" height="84" fill="#E03030"/>
</g>
<mask id="mask1_5_5" style="mask-type:alpha" maskUnits="userSpaceOnUse" x="8" y="8" width="144" height="144">
<path d="M152 80C152 119.765 119.765 152 80 152C40.2355 152 8 119.765 8 80C8 40.2355 40.2355 8 80 8C119.765 8 152 40.2355 152 80Z" fill="white"/>
</mask>
<g mask="url(#mask1_5_5)">
<rect y="76" width="160" height="84" fill="white"/>
</g>
<rect x="3" y="76" width="154" height="8" fill="#1A1A1A"/>
<circle cx="80" cy="80" r="26" fill="white" stroke="#1A1A1A" stroke-width="8"/>
<circle cx="80" cy="80" r="10" fill="white" stroke="#1A1A1A" stroke-width="8"/>
</svg>
