<svg enable-background="new 0 0 255.1 255.1" viewBox="0 0 255.1 255.1" xmlns="http://www.w3.org/2000/svg"><circle cx="127.6" cy="127.6" fill="#ff6675" r="121.6"/><path d="m188.506 183.457c-.727 1.076-1.859 1.684-2.877 2.4-10.549 7.418-22.267 11.923-34.952 14.071-6.829 1.157-13.699 1.531-20.593 1.192-15.919-.781-30.835-4.841-44.112-13.982-14.904-10.261-24.217-24.308-28.271-41.901-1.677-7.276-2.224-14.657-1.742-22.082.837-12.916 4.115-25.167 11.133-36.151 9.079-14.209 21.809-23.806 37.847-29.014 9.179-2.98 18.593-4.398 28.234-3.948 14.763.689 28.177 5.245 39.857 14.456 9.174 7.236 15.361 16.604 19.011 27.618 5.384 16.249 4.381 32.077-3.484 47.405-2.592 5.052-6.368 9.078-10.489 12.833-7.556 6.884-16.239 11.723-26.361 13.496-14.86 2.603-28.301-.558-39.668-10.819-7.212-6.509-11.29-14.728-12.569-24.361-.814-6.126-.452-12.182 1.607-17.988 4.249-11.981 12.94-19.09 25.219-21.699 7.63-1.621 15.072-.749 21.835 3.493 7.19 4.509 11.145 11.231 12.273 19.47 1.388 10.141-6.052 20.132-16.24 22.38-3.012.664-6.011.724-9.026-.001-5.81-1.397-10.526-6.446-11.446-12.304-.352-2.243.021-4.44.566-6.596.347-1.373 1.307-1.909 2.469-1.63 1.113.268 1.792 1.239 1.59 2.543-.161 1.036-.261 2.061-.135 3.094.695 5.675 5.557 9.085 11.423 8.025.146-.026.288-.07.433-.1 10.215-2.141 11.215-12.692 7.645-18.714-2.537-4.279-6.435-6.668-11.226-7.64-9.717-1.971-17.792 4.111-20.814 11.214-3.794 8.917-2.271 17.167 3.999 24.433 8.581 9.943 23.247 12.338 34.855 5.796 9.875-5.565 15.873-13.986 17.335-25.222 1.457-11.196-1.442-21.152-9.091-29.809-6.877-7.783-15.413-12.21-25.427-13.809-24.786-3.958-45.598 8.782-54.523 30.612-3.686 9.016-4.806 18.43-3.754 28.12 1.606 14.794 7.652 27.452 18.354 37.777 9.417 9.086 20.639 14.843 33.534 17.173 19.404 3.507 37.707.041 55.104-8.932.776-.4 1.48-1.024 2.449-.928z" fill="#fefefe"/></svg>