<svg enable-background="new 0 0 255.1 255.1" viewBox="0 0 255.1 255.1" xmlns="http://www.w3.org/2000/svg"><circle cx="127.6" cy="127.6" fill="#c8b686" r="121.6"/><path clip-rule="evenodd" d="m173.599 124.04c-.01-.013-.014-.03-.011-.046l10.762-62.756c.005-.029.03-.05.059-.05h3.406c.026 0 .049.017.057.042l24.247 76.771c.008.024-.001.05-.02.066l-17.878 13.958c-.027.021-.065.015-.085-.012zm-130.522 41.603c0 .026.017.049.041.057l36.853 12.05c.018.006.038.003.053-.008l82.374-56.869c.014-.01.023-.024.025-.041l8.834-59.272c.006-.036-.023-.069-.059-.069h-72.963c-.018 0-.035.008-.046.022l-55.098 66.467c-.009.011-.014.024-.014.039zm52.251 15.177 40.261 13.188c.018.006.038.003.054-.008l47.933-34.383c.027-.019.033-.055.015-.082l-17.969-26.739c-.019-.028-.056-.035-.084-.016z" fill="#fff" fill-rule="evenodd"/></svg>