<svg enable-background="new 0 0 255.1 255.1" viewBox="0 0 255.1 255.1" xmlns="http://www.w3.org/2000/svg"><circle cx="127.6" cy="127.6" fill="#5a8ea2" r="121.6"/><path clip-rule="evenodd" d="m44.336 127.584c-.022-.038-.022-.085 0-.123l41.883-71.558c.022-.037.062-.059.104-.059h83.013c.044 0 .083.022.106.061l41.423 71.558c.021.037.021.085 0 .122l-41.423 71.479c-.022.037-.062.061-.106.061h-83.013c-.044 0-.083-.022-.104-.059zm121.851-.102c0 21.304-17.27 38.574-38.574 38.574s-38.574-17.27-38.574-38.574 17.27-38.574 38.574-38.574 38.574 17.27 38.574 38.574z" fill="#fff" fill-rule="evenodd"/></svg>