<svg enable-background="new 0 0 255.1 255.1" viewBox="0 0 255.1 255.1" xmlns="http://www.w3.org/2000/svg"><circle cx="127.6" cy="127.6" fill="#3692dc" r="121.6"/><path d="m128.132 210.828c-29.234-.336-51.773-20.083-57.382-45.802-2.536-11.629-1.433-22.994 2.814-34.14 6.502-17.063 15.073-33.053 24.77-48.465 8.48-13.477 17.111-26.859 25.668-40.288.985-1.546 1.928-3.12 2.881-4.687.495-.814.972-.806 1.462-.004.13.213.263.426.392.639 9.16 15.119 19.139 29.719 28.432 44.753 8.427 13.632 16.251 27.579 22.25 42.482 2.367 5.879 4.758 11.744 5.672 18.084 2.522 17.479-1.681 33.148-13.029 46.669-10.544 12.562-24.218 19.28-40.574 20.527-1.329.101-2.659.184-3.356.232zm-3.735-18.348c5.986.029 11.643-1.252 16.792-4.257 10.073-5.879 15.859-14.502 16.343-26.356.036-.879.383-2.379-.304-2.528-1.104-.239-1.179 1.296-1.634 2.081-5.802 10.021-14.473 15.595-26.016 16.052-17.954.71-32.125-13.959-31.725-31.098.016-.667.05-1.334.036-1.999-.005-.221-.072-.542-.224-.638-.378-.239-.59.122-.785.372-.256.328-.498.67-.712 1.027-6.071 10.144-6.639 20.562-.74 30.853 6.345 11.071 16.396 16.129 28.969 16.491z" fill="#fefefe"/></svg>